<svg width="20" height="20" viewBox="0 0 20 20" fill="none" xmlns="http://www.w3.org/2000/svg">
<path fill-rule="evenodd" clip-rule="evenodd" d="M10 1.66666C12.3297 1.66666 14.0774 3.4868 14.1634 6.05127L14.1667 6.24999V7.49999H15C15.9205 7.49999 16.6667 8.24618 16.6667 9.16666V16.6667C16.6667 17.5872 15.9205 18.3333 15 18.3333H5.00001C4.07954 18.3333 3.33334 17.5872 3.33334 16.6667V9.16666C3.33334 8.24618 4.07954 7.49999 5.00001 7.49999H5.83334V6.24999C5.83334 3.58134 7.61061 1.66666 10 1.66666ZM10 10.8333C9.07954 10.8333 8.33334 11.5795 8.33334 12.5C8.33334 13.1169 8.66848 13.6555 9.16662 13.9437L9.16668 14.3333L9.17228 14.4111C9.22042 14.7426 9.57265 15 10 15C10.4602 15 10.8333 14.7015 10.8333 14.3333L10.8342 13.9432C11.3319 13.6549 11.6667 13.1165 11.6667 12.5C11.6667 11.5795 10.9205 10.8333 10 10.8333ZM10 3.33332C8.60962 3.33332 7.57356 4.39783 7.50376 6.06867L7.50001 6.24999V7.49999H12.5V6.24999C12.5 4.47522 11.4401 3.33332 10 3.33332Z" fill="#0A8080"/>
</svg>
